<mxfile host="app.diagrams.net" modified="2023-10-25T13:41:29.254Z" agent="Mozilla/5.0 (Windows NT 10.0; Win64; x64; rv:109.0) Gecko/20100101 Firefox/118.0" version="22.0.8" etag="Rj03hRD6Az8ylWm5mk8A" type="github">
  <diagram name="PÃ¡gina-1" id="8AQS79ufm-iDJOCS8WZ8">
    <mxGraphModel>
      <root>
        <mxCell id="0" />
        <mxCell id="1" parent="0" />
      </root>
    </mxGraphModel>
  </diagram>
</mxfile>
